<mxfile host="65bd71144e">
    <diagram name="Page-1" id="e7e014a7-5840-1c2e-5031-d8a46d1fe8dd">
        <mxGraphModel dx="737" dy="571" grid="1" gridSize="10" guides="1" tooltips="1" connect="1" arrows="1" fold="1" page="1" pageScale="1" pageWidth="1169" pageHeight="826" background="none" math="0" shadow="0">
            <root>
                <mxCell id="0"/>
                <mxCell id="1" parent="0"/>
                <mxCell id="10" style="edgeStyle=none;html=1;entryX=0;entryY=0.5;entryDx=0;entryDy=0;" parent="1" source="rLQLFMsgkA317vlZWeWC-41" target="tvDQLb94FSbdd8hoaycc-17" edge="1">
                    <mxGeometry relative="1" as="geometry"/>
                </mxCell>
                <mxCell id="11" style="edgeStyle=none;html=1;entryX=0;entryY=0.5;entryDx=0;entryDy=0;" parent="1" source="rLQLFMsgkA317vlZWeWC-41" target="tvDQLb94FSbdd8hoaycc-9" edge="1">
                    <mxGeometry relative="1" as="geometry"/>
                </mxCell>
                <mxCell id="12" style="edgeStyle=none;html=1;entryX=0;entryY=0.5;entryDx=0;entryDy=0;" parent="1" source="rLQLFMsgkA317vlZWeWC-41" target="tvDQLb94FSbdd8hoaycc-11" edge="1">
                    <mxGeometry relative="1" as="geometry"/>
                </mxCell>
                <mxCell id="13" style="edgeStyle=none;html=1;entryX=0;entryY=0.5;entryDx=0;entryDy=0;" parent="1" source="rLQLFMsgkA317vlZWeWC-41" target="tvDQLb94FSbdd8hoaycc-10" edge="1">
                    <mxGeometry relative="1" as="geometry"/>
                </mxCell>
                <mxCell id="rLQLFMsgkA317vlZWeWC-41" value="Сотрудник" style="shape=umlActor;verticalLabelPosition=bottom;verticalAlign=top;html=1;" parent="1" vertex="1">
                    <mxGeometry x="50" y="235" width="30" height="60" as="geometry"/>
                </mxCell>
                <mxCell id="tvDQLb94FSbdd8hoaycc-17" value="Создать тайм трекер" style="ellipse;whiteSpace=wrap;html=1;" parent="1" vertex="1">
                    <mxGeometry x="250" y="40" width="140" height="70" as="geometry"/>
                </mxCell>
                <mxCell id="tvDQLb94FSbdd8hoaycc-9" value="Изменить тайм трекер" style="ellipse;whiteSpace=wrap;html=1;" parent="1" vertex="1">
                    <mxGeometry x="250" y="130" width="140" height="70" as="geometry"/>
                </mxCell>
                <mxCell id="tvDQLb94FSbdd8hoaycc-11" value="Удалить тайм трекер" style="ellipse;whiteSpace=wrap;html=1;" parent="1" vertex="1">
                    <mxGeometry x="250" y="225" width="140" height="70" as="geometry"/>
                </mxCell>
                <mxCell id="tvDQLb94FSbdd8hoaycc-12" value="Найти список трекеров по фильтрам" style="ellipse;whiteSpace=wrap;html=1;" parent="1" vertex="1">
                    <mxGeometry x="570" y="330" width="140" height="70" as="geometry"/>
                </mxCell>
                <mxCell id="tvDQLb94FSbdd8hoaycc-13" value="&amp;lt;&amp;lt;extend&amp;gt;&amp;gt;" style="html=1;verticalAlign=bottom;endArrow=open;dashed=1;endSize=8;curved=0;rounded=0;entryX=1;entryY=0.5;entryDx=0;entryDy=0;exitX=0;exitY=0.5;exitDx=0;exitDy=0;" parent="1" source="tvDQLb94FSbdd8hoaycc-12" target="tvDQLb94FSbdd8hoaycc-10" edge="1">
                    <mxGeometry relative="1" as="geometry">
                        <mxPoint x="480" y="550" as="sourcePoint"/>
                        <mxPoint x="400" y="550" as="targetPoint"/>
                    </mxGeometry>
                </mxCell>
                <mxCell id="tvDQLb94FSbdd8hoaycc-10" value="Посмотреть список тайм трекеров по проекту" style="ellipse;whiteSpace=wrap;html=1;" parent="1" vertex="1">
                    <mxGeometry x="250" y="330" width="140" height="70" as="geometry"/>
                </mxCell>
            </root>
        </mxGraphModel>
    </diagram>
</mxfile>